<?xml version="1.0" encoding="utf-8"?>
<!-- Generator: Adobe Illustrator 22.0.1, SVG Export Plug-In . SVG Version: 6.00 Build 0)  -->
<svg version="1.1" id="Capa_1" xmlns="http://www.w3.org/2000/svg" xmlns:xlink="http://www.w3.org/1999/xlink" x="0px" y="0px"
	 viewBox="0 0 40.5 40.4" style="enable-background:new 0 0 40.5 40.4;" xml:space="preserve">
<path d="M37.7,10.1c-5.6-9.7-17.9-13-27.6-7.4s-13,17.9-7.4,27.6s17.9,13,27.6,7.4S43.3,19.8,37.7,10.1L37.7,10.1z M28.3,34.2
	c-7.7,4.5-17.6,1.8-22.1-5.9c-4.5-7.8-1.8-17.6,5.9-22.1s17.6-1.8,22.1,5.9S36,29.7,28.3,34.2L28.3,34.2z"/>
<path d="M27.5,19.4l-10.6-6.2c-1-0.6-1.7-0.1-1.7,1v12.3c0,1.1,0.8,1.6,1.8,1l10.5-6.1C28.4,20.8,28.4,19.9,27.5,19.4L27.5,19.4z"/>
</svg>
